<svg width="93" height="91" viewBox="0 0 93 91" fill="none" xmlns="http://www.w3.org/2000/svg">
<path fill-rule="evenodd" clip-rule="evenodd" d="M31.326 4.4753C31.326 2.02114 33.3473 0 35.8014 0H56.6876C59.1418 0 61.1627 2.02114 61.1627 4.4753V23.4318C61.1627 23.928 61.4078 24.3888 61.8202 24.6672C62.2309 24.9455 62.7492 25.0023 63.21 24.8184L78.3143 18.5603C78.8811 18.3259 79.4724 18.2193 80.0537 18.2253C81.7973 18.2434 83.4576 19.2843 84.1621 20.9845L92.1546 40.2785C93.0936 42.5464 92.0022 45.1914 89.733 46.1265L71.414 53.6785C70.9939 53.8525 70.6782 54.206 70.5516 54.643C70.4258 55.0798 70.505 55.5453 70.7675 55.9162L82.7595 71.0931C84.2535 73.0404 83.8819 75.8753 81.9351 77.3691L65.3651 90.0843C63.4181 91.5781 60.5829 91.2033 59.0891 89.2566L47.4285 74.4961C47.1456 74.1273 46.7106 73.9135 46.2459 73.9135C45.781 73.9135 45.346 74.1273 45.0632 74.4961L33.4025 89.2566C31.909 91.2038 29.073 91.5781 27.1265 90.0843L10.5565 77.3691C8.60987 75.8756 8.23826 73.0398 9.73202 71.0931L21.7242 55.9162C21.9866 55.5448 22.0665 55.0798 21.94 54.643C21.8134 54.206 21.4978 53.8525 21.0775 53.6785L2.75855 46.1265C0.48959 45.1914 -0.601934 42.5456 0.337083 40.2785L8.32875 20.9845C9.03337 19.2842 10.6936 18.2433 12.4372 18.2253C13.0185 18.2193 13.6099 18.3252 14.1767 18.5603L29.2808 24.8184C29.7419 25.0021 30.2599 24.9455 30.6707 24.6672C31.0809 24.3888 31.326 23.928 31.326 23.4318V4.4753ZM46.3615 33.5282C39.7847 33.5282 34.4531 38.8598 34.4531 45.4366C34.4531 52.0133 39.7847 57.3449 46.3615 57.3449C52.9382 57.3449 58.2698 52.0133 58.2698 45.4366C58.2698 38.8598 52.9382 33.5282 46.3615 33.5282Z" fill="black"/>
</svg>
